<mxfile host="app.diagrams.net" modified="2023-12-27T07:37:44.587Z" agent="Mozilla/5.0 (X11; Ubuntu; Linux x86_64; rv:120.0) Gecko/20100101 Firefox/120.0" version="22.1.12" etag="HPD3-vMdiDsxP2bmS9T8" type="github">
  <diagram name="Page-1" id="mfbmZ-uYZTZ8dI2Ob0HD">
    <mxGraphModel>
      <root>
        <mxCell id="0" />
        <mxCell id="1" parent="0" />
      </root>
    </mxGraphModel>
  </diagram>
</mxfile>
